<svg width="375" height="618" viewBox="0 0 375 618" fill="none" xmlns="http://www.w3.org/2000/svg"><g opacity="0.4"><g clip-path="url(#clip0)"><ellipse cx="407.5" cy="112" rx="254.5" ry="242" fill="#FFA488" fill-opacity="0.3"/><path d="M204 138.5C204 142.918 200.418 146.5 196 146.5C191.582 146.5 188 142.918 188 138.5C188 134.082 191.582 130.5 196 130.5C200.418 130.5 204 134.082 204 138.5Z" fill="black"/><circle cx="342" cy="362" r="8" fill="#A80AA2"/><circle cx="20" cy="225" r="8" fill="#E64A19"/><path d="M103.882 70.4819L96.534 84.2662L107.373 95.5145L91.9925 92.7854L84.6442 106.57L82.4869 91.0987L67.1064 88.3696L81.1536 81.5371L78.9963 66.0661L89.8352 77.3144L103.882 70.4819Z" fill="#E9ED20"/><path d="M253.099 419.682L262.848 442.264L248.166 461.999L223.734 459.151L213.985 436.569L228.667 416.834L253.099 419.682Z" fill="#DE247D"/><circle cx="196" cy="559" r="208" fill="#FFA488" fill-opacity="0.3"/><g filter="url(#filter0_d)"><path d="M585.613 -26.0673C594.332 130.437 526.071 175.289 425.847 78.4927C333.803 -10.4035 278.441 62.8414 257.5 118C222.197 210.988 226.211 263.213 193 276C144.578 294.643 67.3822 206.916 38.7926 187.975C-0.930866 161.658 -47.1902 178.065 -43.6223 258.608C-40.0543 339.152 -20.2757 456.477 -66.8446 478.704" stroke="#79D68D" stroke-width="3"/></g></g></g><defs><filter id="filter0_d" x="-71.4907" y="-26.1508" width="663.353" height="514.208" filterUnits="userSpaceOnUse" color-interpolation-filters="sRGB"><feFlood flood-opacity="0" result="BackgroundImageFix"/><feColorMatrix in="SourceAlpha" type="matrix" values="0 0 0 0 0 0 0 0 0 0 0 0 0 0 0 0 0 0 127 0"/><feOffset dy="4"/><feGaussianBlur stdDeviation="2"/><feColorMatrix type="matrix" values="0 0 0 0 0 0 0 0 0 0 0 0 0 0 0 0 0 0 0.25 0"/><feBlend mode="normal" in2="BackgroundImageFix" result="effect1_dropShadow"/><feBlend mode="normal" in="SourceGraphic" in2="effect1_dropShadow" result="shape"/></filter><clipPath id="clip0"><rect x="-3" width="378" height="618" fill="white"/></clipPath></defs></svg>