<svg height="512" viewBox="0 0 64 64" width="512" xmlns="http://www.w3.org/2000/svg"><g id="Filled_outline" data-name="Filled outline"><path d="m3 3h10v10h-10z" fill="#c8d952"/><path d="m51 3h10v10h-10z" fill="#c8d952"/><path d="m13 3h6v10h-6z" fill="#db527d"/><path d="m19 3h6v10h-6z" fill="#eb8cb3"/><path d="m25 3h7v10h-7z" fill="#db527d"/><path d="m45 3h6v10h-6z" fill="#eb8cb3" transform="matrix(-1 0 0 -1 96 16)"/><path d="m39 3h6v10h-6z" fill="#db527d" transform="matrix(-1 0 0 -1 84 16)"/><path d="m32 3h7v10h-7z" fill="#eb8cb3" transform="matrix(-1 0 0 -1 71 16)"/><path d="m13 51h6v10h-6z" fill="#eb8cb3"/><path d="m19 51h6v10h-6z" fill="#db527d"/><path d="m25 51h7v10h-7z" fill="#eb8cb3"/><path d="m45 51h6v10h-6z" fill="#db527d" transform="matrix(-1 0 0 -1 96 112)"/><path d="m39 51h6v10h-6z" fill="#eb8cb3" transform="matrix(-1 0 0 -1 84 112)"/><path d="m32 51h7v10h-7z" fill="#db527d" transform="matrix(-1 0 0 -1 71 112)"/><path d="m51 51h10v10h-10z" fill="#c8d952" transform="matrix(0 1 -1 0 112 0)"/><path d="m53 11h6v10h-6z" fill="#db527d" transform="matrix(0 1 -1 0 72 -40)"/><path d="m53 17h6v10h-6z" fill="#eb8cb3" transform="matrix(0 1 -1 0 78 -34)"/><path d="m52.5 23.5h7v10h-7z" fill="#db527d" transform="matrix(0 1 -1 0 84.5 -27.5)"/><path d="m53 43h6v10h-6z" fill="#eb8cb3" transform="matrix(0 -1 1 0 8 104)"/><path d="m53 37h6v10h-6z" fill="#db527d" transform="matrix(0 -1 1 0 14 98)"/><path d="m52.5 30.5h7v10h-7z" fill="#eb8cb3" transform="matrix(0 -1 1 0 20.5 91.5)"/><path d="m3 51h10v10h-10z" fill="#c8d952" transform="matrix(0 1 -1 0 64 48)"/><path d="m5 11h6v10h-6z" fill="#db527d" transform="matrix(0 1 -1 0 24 8)"/><path d="m5 17h6v10h-6z" fill="#eb8cb3" transform="matrix(0 1 -1 0 30 14)"/><path d="m4.5 23.5h7v10h-7z" fill="#db527d" transform="matrix(0 1 -1 0 36.5 20.5)"/><path d="m5 43h6v10h-6z" fill="#eb8cb3" transform="matrix(0 -1 1 0 -40 56)"/><path d="m5 37h6v10h-6z" fill="#db527d" transform="matrix(0 -1 1 0 -34 50)"/><path d="m4.5 30.5h7v10h-7z" fill="#eb8cb3" transform="matrix(0 -1 1 0 -27.5 43.5)"/><path d="m15.136 18.672h12.728v5.657h-12.728z" fill="#87cee9" transform="matrix(.707 -.707 .707 .707 -8.906 21.5)"/><path d="m36.136 39.672h12.728v5.657h-12.728z" fill="#87cee9" transform="matrix(.707 -.707 .707 .707 -17.604 42.5)"/><path d="m19.272 27.757h25.456v8.485h-25.456z" fill="#32b1cc" transform="matrix(.707 -.707 .707 .707 -13.255 32)"/><path d="m13 9h6v4h-6z" fill="#f9bb4b"/><path d="m25 9h7v4h-7z" fill="#f9bb4b"/><path d="m32 9h7v4h-7z" fill="#ffd782"/><path d="m9 13h4v6h-4z" fill="#ffd782"/><path d="m9 19h4v6h-4z" fill="#f9bb4b"/><path d="m9 32h4v7h-4z" fill="#ffd782"/><path d="m9 45h4v6h-4z" fill="#ffd782"/><path d="m13 51h6v4h-6z" fill="#f9bb4b"/><path d="m19 51h6v4h-6z" fill="#ffd782"/><path d="m32 51h7v4h-7z" fill="#f9bb4b"/><path d="m45 51h6v4h-6z" fill="#f9bb4b"/><g fill="#ffd782"><path d="m51 39h4v6h-4z"/><path d="m51 25h4v7h-4z"/><path d="m51 13h4v6h-4z"/></g><path d="m45 9h6v4h-6z" fill="#f9bb4b"/><path d="m24.586 37h2.828v2h-2.828z" fill="#d9176c" transform="matrix(.707 -.707 .707 .707 -19.255 29.515)"/><path d="m26.964 32.5h7.071v2h-7.071z" fill="#d9176c" transform="matrix(.707 -.707 .707 .707 -14.755 31.379)"/><path d="m32.964 26.5h7.071v2h-7.071z" fill="#d9176c" transform="matrix(.707 -.707 .707 .707 -8.755 33.864)"/><path d="m2 2v60h60v-60zm2 12h4v4h-4zm0 6h4v4h-4zm0 13h4v5h-4zm0 13h4v4h-4zm8 14h-8v-8h8zm0-10h-2v-4h2zm0-6h-8v-4h8zm0-6h-2v-5h2zm0-7h-8v-5h8zm0-7h-2v-4h2zm0-6h-2v-4h2zm0-6h-8v-8h8zm28-8h4v8h-4zm-7 0h5v4h-5zm0 6h5v2h-5zm-7-6h5v4h-5zm0 6h5v2h-5zm-6-6h4v8h-4zm-6 0h4v4h-4zm0 6h4v2h-4zm4 50h-4v-4h4zm0-6h-4v-2h4zm6 6h-4v-4h4zm0-6h-4v-2h4zm7 6h-5v-8h5zm7 0h-5v-4h5zm0-6h-5v-2h5zm6 6h-4v-8h4zm6 0h-4v-4h4zm0-6h-4v-2h4zm0-14v10h-36v-36h36zm0-28h-4v-2h4zm0-4h-4v-4h4zm2 6h2v4h-2zm0 12h2v5h-2zm0 14h2v4h-2zm8 20h-8v-8h8zm0-10h-8v-4h8zm0-6h-4v-4h4zm0-6h-8v-5h8zm0-7h-4v-5h4zm0-7h-8v-4h8zm0-6h-4v-4h4zm0-6h-8v-8h8z"/><path d="m18.293 28.707a1 1 0 0 0 1.414 0l9-9a1 1 0 0 0 0-1.414l-4-4a1 1 0 0 0 -1.414 0l-9 9a1 1 0 0 0 0 1.414zm5.707-12.293 2.586 2.586-7.586 7.586-2.586-2.586z"/><path d="m45.707 35.293a1 1 0 0 0 -1.414 0l-9 9a1 1 0 0 0 0 1.414l4 4a1 1 0 0 0 1.414 0l9-9a1 1 0 0 0 0-1.414zm-5.707 12.293-2.586-2.586 7.586-7.586 2.586 2.586z"/><path d="m44.707 25.293-6-6a1 1 0 0 0 -1.414 0l-18 18a1 1 0 0 0 0 1.414l6 6a1 1 0 0 0 1.414 0l18-18a1 1 0 0 0 0-1.414zm-18.707 17.293-4.586-4.586 16.586-16.586 4.586 4.586z"/><path d="m8 8h2v-2h-4v4h2z"/><path d="m58 54h-2v2h-2v2h4z"/><path d="m43 18h2v2h-2z"/><path d="m46 21h2v2h-2z"/><path d="m18 43h-2v5h5v-2h-3z"/><path d="m14.55 32.5h9.899v2h-9.899z" transform="matrix(.707 -.707 .707 .707 -17.977 23.601)"/><path d="m40.757 29h8.485v2h-8.485z" transform="matrix(.707 -.707 .707 .707 -8.033 40.607)"/><path d="m24.586 37h2.828v2h-2.828z" transform="matrix(.707 -.707 .707 .707 -19.255 29.515)"/><path d="m26.964 32.5h7.071v2h-7.071z" transform="matrix(.707 -.707 .707 .707 -14.755 31.379)"/><path d="m32.964 26.5h7.071v2h-7.071z" transform="matrix(.707 -.707 .707 .707 -8.755 33.864)"/></g></svg>