<svg height="512" viewBox="0 0 58 59" width="512" xmlns="http://www.w3.org/2000/svg"><g id="Page-1" fill="none" fill-rule="evenodd"><g id="037---Ball-and-Hoop" fill-rule="nonzero"><path id="Shape" d="m38.5 45.5h-1.8c-.4240949.8391331-.7948312 1.7041843-1.11 2.59-.02.02-.04.02-.05.04l-.78.72-2.38-2.38.99-.97h-4.78l.95.95-2.54 2.49-2.54-2.49.95-.95h-4.78l.99.97-2.38 2.38-.78-.72c-.01-.02-.03-.02-.04-.03-.3078531-.8919012-.6787901-1.7607626-1.11-2.6h-1.81c-.1678482-.0012827-.3352216-.01802-.5-.05 1.0760948 1.862622 1.8490843 3.8845466 2.29 5.99.417078 1.8523601.6482238 3.7417253.69 5.64.0393232.8009568.7082295 1.4255648 1.51 1.41.3901734-.0039389.7647441-.1537672 1.05-.42l2.72-2.66 2.7 2.68c.2790958.262058.6471596.4085688 1.03.41.3985759-.0010002.7815707-.154914 1.07-.43l2.68-2.66 2.75 2.69c.2854533.2570618.6558593.3995257 1.04.4.7943001-.0041655 1.4476477-.6268189 1.49-1.42.0518703-1.9014036.2862803-3.7934273.7-5.65.4367815-2.1035117 1.2100487-4.1227857 2.29-5.98-.1680782.0324695-.3388161.0492085-.51.05zm-18.57 10.38c-.0891311-1.3975007-.2728856-2.7873529-.55-4.16l2.44 2.3zm3.32-3.26-2.55-2.4 2.35-2.35 2.52 2.47zm3.75 3.69-2.32-2.3 2.32-2.27 2.32 2.27zm1.43-5.97 2.52-2.47 2.35 2.35-2.55 2.4zm5.64 5.54-1.89-1.86 2.45-2.31c-.2723483 1.3771438-.459371 2.7697956-.56 4.17z" fill="#a56a43"/><path id="Shape" d="m13.05 43h-11.05c-1.10320187-.0032948-1.9967052-.8967981-2-2v-30c.0032948-1.10320187.89679813-1.9967052 2-2h28.93l23.07 14.79v17.21c-.0032948 1.1032019-.8967981 1.9967052-2 2z" fill="#f0785a"/><path id="Shape" d="m38 42c-.5522847 0-1-.4477153-1-1v-16.97h-19c-.5522847 0-1 .4477153-1 1v15.97c0 .5522847-.4477153 1-1 1s-1-.4477153-1-1v-15.97c0-1.6568542 1.3431458-3 3-3h20c.5522847 0 1 .4477153 1 1v17.97c0 .5522847-.4477153 1-1 1z" fill="#fff"/><path id="Shape" d="m58 14c-.0012174 2.0740716-.4586955 4.1224812-1.34 6-.2980799.5995602-.6320184 1.1806132-1 1.74-.488421.7334378-1.0441593 1.4197411-1.66 2.05-1.9100872 1.9594083-4.3552785 3.3124373-7.03 3.89-.8507703.1898262-1.7184624.2936812-2.59.31-.13.01-.25.01-.38.01-3.3518452.0039749-6.5929818-1.1994702-9.13-3.39-.5711421-.4911335-1.0996949-1.0297221-1.58-1.61-.4173791-.4881045-.7984009-1.0061605-1.14-1.55-1.1934842-1.8902209-1.9106548-4.0417327-2.09-6.27-.0401901-.3920466-.0602165-.7858988-.06-1.18-.0033046-.3673023.0133867-.7345122.05-1.1.1017586-1.3359307.3982252-2.6498165.88-3.9 1.0501001-2.74301994 2.9355664-5.08673496 5.39-6.7.6590725-.43373326 1.3551002-.80851746 2.08-1.12 1.5436986-.68734165 3.2020542-1.0807348 4.89-1.16.24-.01.47-.02.71-.02.8013324-.00135227 1.6011819.06892739 2.39.21 2.4733908.42092774 4.7858369 1.50629108 6.69 3.14.27.22.52.46.77.7.23.23.46.47.67.72 1.5126263 1.71354146 2.5776248 3.77482879 3.1 6 .1706719.7060313.2810687 1.425283.33 2.15.0366106.3587995.0533029.7193527.05 1.08z" fill="#e57e25"/><path id="Shape" d="m56 11.5c.0005071 5.6499945-3.3952063 10.7465246-8.609615 12.9219278-5.2144088 2.1754033-11.2253603 1.0032469-15.240385-2.9719278-3.7808387-6.0210058-2.4484455-13.9197814 3.0982745-18.36738176s13.5462737-4.03158399 18.6017255.96738176c1.4074183 2.22975486 2.1529813 4.81321707 2.15 7.45z" fill="#f29c1f"/><path id="Shape" d="m55.92 19.57c.2293754.1712146.4776718.3154949.74.43-.2980799.5995602-.6320184 1.1806132-1 1.74-.3274043-.1561077-.6388674-.3436554-.93-.56-2.4-1.77-3.9-5.35-3.99-9.4-.49-.04-.98-.07-1.48-.09.05.88.08 1.82.08 2.78 0 5.15-.81 9.87-2.24 12.95-.0372758.0895654-.0807131.1764401-.13.26-.8507703.1898262-1.7184624.2936812-2.59.31.3897819-.4082147.6985756-.8866752.91-1.41 1.29-2.78 2.05-7.31 2.05-12.11 0-.98-.04-1.92-.1-2.84-.11 0-.23-.01-.34-.01h-.11c-.61 0-1.21.04-1.81.06 0 .13.02.26.02.39 0 5.68-4.12 10.53-10.13 12.54-.5711421-.4911335-1.0996949-1.0297221-1.58-1.61 5.65-1.58 9.71-5.94 9.71-10.93-.0013274-.0936381-.0080049-.1871239-.02-.28-.76.06-1.53.12-2.27.21-3.7249468.3474309-7.3443956 1.4281677-10.65 3.18-.0401901-.3920466-.0602165-.7858988-.06-1.18-.0033046-.3673023.0133867-.7345122.05-1.1 3.2844596-1.5373779 6.8030645-2.5142048 10.41-2.89.73-.09 1.49-.15 2.25-.21-.9392144-3.30963444-3.2715287-6.04709248-6.39-7.5.6590725-.43373326 1.3551002-.80851746 2.08-1.12 3.2002177 1.83675345 5.4957769 4.91801667 6.34 8.51.68-.03 1.36-.07 2.05-.07h.11c.06 0 .12.01.18.01-.68-6.11-2.53-9.45-3.79-9.61.24-.01.47-.02.71-.02.8013324-.00135227 1.6011819.06892739 2.39.21 1.45 2.28 2.33 5.97 2.7 9.47.58.03 1.16.06 1.73.1.1718229-2.30540083.9516344-4.5240683 2.26-6.43.27.22.52.46.77.7.23.23.46.47.67.72-.9828409 1.56554463-1.5697421 3.34684131-1.71 5.19.0703842.00170355.1405596.00838692.21.02 1.546473.1800812 3.0820559.4438009 4.6.79.1706719.7060313.2810687 1.425283.33 2.15-1.6957494-.4388548-3.4198825-.7596238-5.16-.96h-.04c.12 3.3 1.33 6.26 3.17 7.61z" fill="#d25627"/><path id="Shape" d="m4 18c-.55228475 0-1-.4477153-1-1v-4c0-.5522847.44771525-1 1-1h7c.5522847 0 1 .4477153 1 1s-.4477153 1-1 1h-6v3c0 .5522847-.44771525 1-1 1z" fill="#fff"/><path id="Shape" d="m41 43.5c0 1.3807119-1.1192881 2.5-2.5 2.5h-23c-.6636932.0021341-1.3008186-.2605727-1.770123-.729877-.4693043-.4693044-.7320111-1.1064298-.729877-1.770123.0012827-.1678482.01802-.3352216.05-.5.2376343-1.1641656 1.2618285-2.0002425 2.45-2h23c1.1895597-.0041496 2.2159158.8336921 2.45 2 .03198.1647784.0487173.3321518.05.5z" fill="#e64c3c"/><g fill="#805333"><path id="Shape" d="m38.69 46c-.3440539.6502963-.6544632 1.3178432-.93 2h-2.14c.27-.73.55-1.4.84-2z"/><path id="Shape" d="m33.91 48h-2.83l-.13-.13-.13.13h-2.86l1.58-1.55-.45-.45h3.77l-.48.47z"/><path id="Shape" d="m26.04 48h-2.86l-.13-.13-.13.13h-2.83l1.53-1.53-.48-.47h3.77l-.45.45z"/><path id="Shape" d="m18.38 48h-2.14c-.2708453-.6825686-.5779493-1.3501859-.92-2h2.24c.308104.6518754.5818131 1.3194586.82 2z"/></g></g></g></svg>